<mxfile host="app.diagrams.net" modified="2024-01-29T18:19:10.625Z" agent="Mozilla/5.0 (Windows NT 10.0; Win64; x64) AppleWebKit/537.36 (KHTML, like Gecko) Chrome/120.0.0.0 Safari/537.36" etag="EL1FKwhC4QL31-NfWfnj" version="23.0.2" type="device">
  <diagram name="Страница — 1" id="23xYuJ34DmNVE_WCFYk2">
    <mxGraphModel dx="1434" dy="738" grid="1" gridSize="10" guides="1" tooltips="1" connect="1" arrows="1" fold="1" page="1" pageScale="1" pageWidth="827" pageHeight="1169" math="0" shadow="0">
      <root>
        <mxCell id="0" />
        <mxCell id="1" parent="0" />
        <mxCell id="RFQ2vtOwyeO5f8csp2aC-1" value="Animals" style="swimlane;fontStyle=0;childLayout=stackLayout;horizontal=1;startSize=30;horizontalStack=0;resizeParent=1;resizeParentMax=0;resizeLast=0;collapsible=1;marginBottom=0;whiteSpace=wrap;html=1;" vertex="1" parent="1">
          <mxGeometry x="344" y="40" width="140" height="120" as="geometry" />
        </mxCell>
        <mxCell id="RFQ2vtOwyeO5f8csp2aC-2" value="Name" style="text;strokeColor=none;fillColor=none;align=left;verticalAlign=middle;spacingLeft=4;spacingRight=4;overflow=hidden;points=[[0,0.5],[1,0.5]];portConstraint=eastwest;rotatable=0;whiteSpace=wrap;html=1;" vertex="1" parent="RFQ2vtOwyeO5f8csp2aC-1">
          <mxGeometry y="30" width="140" height="30" as="geometry" />
        </mxCell>
        <mxCell id="RFQ2vtOwyeO5f8csp2aC-3" value="Birthdate" style="text;strokeColor=none;fillColor=none;align=left;verticalAlign=middle;spacingLeft=4;spacingRight=4;overflow=hidden;points=[[0,0.5],[1,0.5]];portConstraint=eastwest;rotatable=0;whiteSpace=wrap;html=1;" vertex="1" parent="RFQ2vtOwyeO5f8csp2aC-1">
          <mxGeometry y="60" width="140" height="30" as="geometry" />
        </mxCell>
        <mxCell id="RFQ2vtOwyeO5f8csp2aC-4" value="Commands" style="text;strokeColor=none;fillColor=none;align=left;verticalAlign=middle;spacingLeft=4;spacingRight=4;overflow=hidden;points=[[0,0.5],[1,0.5]];portConstraint=eastwest;rotatable=0;whiteSpace=wrap;html=1;" vertex="1" parent="RFQ2vtOwyeO5f8csp2aC-1">
          <mxGeometry y="90" width="140" height="30" as="geometry" />
        </mxCell>
        <mxCell id="RFQ2vtOwyeO5f8csp2aC-8" style="edgeStyle=orthogonalEdgeStyle;rounded=0;orthogonalLoop=1;jettySize=auto;html=1;entryX=0;entryY=0.5;entryDx=0;entryDy=0;" edge="1" parent="1" source="RFQ2vtOwyeO5f8csp2aC-5" target="RFQ2vtOwyeO5f8csp2aC-3">
          <mxGeometry relative="1" as="geometry" />
        </mxCell>
        <mxCell id="RFQ2vtOwyeO5f8csp2aC-5" value="Pets" style="swimlane;whiteSpace=wrap;html=1;" vertex="1" parent="1">
          <mxGeometry x="90" y="200" width="200" height="40" as="geometry" />
        </mxCell>
        <mxCell id="RFQ2vtOwyeO5f8csp2aC-6" value="Pack&lt;br/&gt;animals" style="swimlane;whiteSpace=wrap;html=1;" vertex="1" parent="1">
          <mxGeometry x="530" y="200" width="200" height="40" as="geometry" />
        </mxCell>
        <mxCell id="RFQ2vtOwyeO5f8csp2aC-7" style="edgeStyle=orthogonalEdgeStyle;rounded=0;orthogonalLoop=1;jettySize=auto;html=1;entryX=1.007;entryY=0.167;entryDx=0;entryDy=0;entryPerimeter=0;" edge="1" parent="1" source="RFQ2vtOwyeO5f8csp2aC-6" target="RFQ2vtOwyeO5f8csp2aC-3">
          <mxGeometry relative="1" as="geometry" />
        </mxCell>
        <mxCell id="RFQ2vtOwyeO5f8csp2aC-9" value="extends" style="text;html=1;strokeColor=none;fillColor=none;align=center;verticalAlign=middle;whiteSpace=wrap;rounded=0;" vertex="1" parent="1">
          <mxGeometry x="200" y="160" width="60" height="30" as="geometry" />
        </mxCell>
        <mxCell id="RFQ2vtOwyeO5f8csp2aC-11" value="extends" style="text;html=1;strokeColor=none;fillColor=none;align=center;verticalAlign=middle;whiteSpace=wrap;rounded=0;" vertex="1" parent="1">
          <mxGeometry x="560" y="160" width="60" height="30" as="geometry" />
        </mxCell>
        <mxCell id="RFQ2vtOwyeO5f8csp2aC-18" style="edgeStyle=orthogonalEdgeStyle;rounded=0;orthogonalLoop=1;jettySize=auto;html=1;entryX=0.5;entryY=1;entryDx=0;entryDy=0;" edge="1" parent="1" source="RFQ2vtOwyeO5f8csp2aC-12" target="RFQ2vtOwyeO5f8csp2aC-5">
          <mxGeometry relative="1" as="geometry" />
        </mxCell>
        <mxCell id="RFQ2vtOwyeO5f8csp2aC-12" value="Dogs" style="swimlane;whiteSpace=wrap;html=1;" vertex="1" parent="1">
          <mxGeometry x="10" y="280" width="100" height="40" as="geometry" />
        </mxCell>
        <mxCell id="RFQ2vtOwyeO5f8csp2aC-21" style="edgeStyle=orthogonalEdgeStyle;rounded=0;orthogonalLoop=1;jettySize=auto;html=1;entryX=0.5;entryY=1;entryDx=0;entryDy=0;" edge="1" parent="1" source="RFQ2vtOwyeO5f8csp2aC-13" target="RFQ2vtOwyeO5f8csp2aC-5">
          <mxGeometry relative="1" as="geometry" />
        </mxCell>
        <mxCell id="RFQ2vtOwyeO5f8csp2aC-13" value="Cats" style="swimlane;whiteSpace=wrap;html=1;" vertex="1" parent="1">
          <mxGeometry x="140" y="280" width="100" height="40" as="geometry" />
        </mxCell>
        <mxCell id="RFQ2vtOwyeO5f8csp2aC-22" style="edgeStyle=orthogonalEdgeStyle;rounded=0;orthogonalLoop=1;jettySize=auto;html=1;entryX=0.5;entryY=1;entryDx=0;entryDy=0;" edge="1" parent="1" source="RFQ2vtOwyeO5f8csp2aC-14" target="RFQ2vtOwyeO5f8csp2aC-5">
          <mxGeometry relative="1" as="geometry" />
        </mxCell>
        <mxCell id="RFQ2vtOwyeO5f8csp2aC-14" value="Hamsters" style="swimlane;whiteSpace=wrap;html=1;" vertex="1" parent="1">
          <mxGeometry x="270" y="280" width="100" height="40" as="geometry" />
        </mxCell>
        <mxCell id="RFQ2vtOwyeO5f8csp2aC-24" style="edgeStyle=orthogonalEdgeStyle;rounded=0;orthogonalLoop=1;jettySize=auto;html=1;entryX=0.5;entryY=1;entryDx=0;entryDy=0;" edge="1" parent="1" source="RFQ2vtOwyeO5f8csp2aC-15" target="RFQ2vtOwyeO5f8csp2aC-6">
          <mxGeometry relative="1" as="geometry" />
        </mxCell>
        <mxCell id="RFQ2vtOwyeO5f8csp2aC-15" value="Donkeys" style="swimlane;whiteSpace=wrap;html=1;" vertex="1" parent="1">
          <mxGeometry x="710" y="280" width="100" height="40" as="geometry" />
        </mxCell>
        <mxCell id="RFQ2vtOwyeO5f8csp2aC-23" style="edgeStyle=orthogonalEdgeStyle;rounded=0;orthogonalLoop=1;jettySize=auto;html=1;entryX=0.5;entryY=1;entryDx=0;entryDy=0;" edge="1" parent="1" source="RFQ2vtOwyeO5f8csp2aC-16" target="RFQ2vtOwyeO5f8csp2aC-6">
          <mxGeometry relative="1" as="geometry" />
        </mxCell>
        <mxCell id="RFQ2vtOwyeO5f8csp2aC-16" value="Camels" style="swimlane;whiteSpace=wrap;html=1;" vertex="1" parent="1">
          <mxGeometry x="580" y="280" width="100" height="40" as="geometry" />
        </mxCell>
        <mxCell id="RFQ2vtOwyeO5f8csp2aC-25" style="edgeStyle=orthogonalEdgeStyle;rounded=0;orthogonalLoop=1;jettySize=auto;html=1;" edge="1" parent="1" source="RFQ2vtOwyeO5f8csp2aC-17">
          <mxGeometry relative="1" as="geometry">
            <mxPoint x="630" y="240" as="targetPoint" />
            <Array as="points">
              <mxPoint x="500" y="260" />
              <mxPoint x="631" y="260" />
            </Array>
          </mxGeometry>
        </mxCell>
        <mxCell id="RFQ2vtOwyeO5f8csp2aC-17" value="Horses" style="swimlane;whiteSpace=wrap;html=1;" vertex="1" parent="1">
          <mxGeometry x="450" y="280" width="100" height="40" as="geometry" />
        </mxCell>
      </root>
    </mxGraphModel>
  </diagram>
</mxfile>
